<mxfile host="app.diagrams.net" agent="Mozilla/5.0 (Windows NT 10.0; Win64; x64) AppleWebKit/537.36 (KHTML, like Gecko) Chrome/135.0.0.0 Safari/537.36" version="27.0.5">
  <diagram name="Page-1" id="bYgmrcVl-Uzf4GGfIQem">
    <mxGraphModel dx="1426" dy="777" grid="1" gridSize="10" guides="1" tooltips="1" connect="1" arrows="1" fold="1" page="1" pageScale="1" pageWidth="850" pageHeight="1100" math="0" shadow="0">
      <root>
        <mxCell id="0" />
        <mxCell id="1" parent="0" />
        <mxCell id="IoencH_V4oTwIDFPPcMS-1" value="mulai" style="ellipse;whiteSpace=wrap;html=1;" vertex="1" parent="1">
          <mxGeometry x="340" y="190" width="120" height="80" as="geometry" />
        </mxCell>
        <mxCell id="IoencH_V4oTwIDFPPcMS-2" value="" style="endArrow=classic;html=1;rounded=0;exitX=0.525;exitY=1.088;exitDx=0;exitDy=0;exitPerimeter=0;" edge="1" parent="1">
          <mxGeometry width="50" height="50" relative="1" as="geometry">
            <mxPoint x="399.5" y="269.99999999999994" as="sourcePoint" />
            <mxPoint x="399.5" y="342.96" as="targetPoint" />
          </mxGeometry>
        </mxCell>
        <mxCell id="IoencH_V4oTwIDFPPcMS-5" value="output pilih bangun yg ingin di hitung&amp;nbsp;&lt;div&gt;1.segitiga&lt;/div&gt;&lt;div&gt;2.persegi&lt;/div&gt;&lt;div&gt;3.lingkaran0&lt;/div&gt;&lt;div&gt;4.leave&lt;/div&gt;" style="shape=parallelogram;perimeter=parallelogramPerimeter;whiteSpace=wrap;html=1;fixedSize=1;" vertex="1" parent="1">
          <mxGeometry x="275" y="330" width="250" height="110" as="geometry" />
        </mxCell>
        <mxCell id="IoencH_V4oTwIDFPPcMS-10" value="" style="edgeStyle=orthogonalEdgeStyle;rounded=0;orthogonalLoop=1;jettySize=auto;html=1;" edge="1" parent="1" source="IoencH_V4oTwIDFPPcMS-6" target="IoencH_V4oTwIDFPPcMS-8">
          <mxGeometry relative="1" as="geometry" />
        </mxCell>
        <mxCell id="IoencH_V4oTwIDFPPcMS-6" value="input pilihan" style="shape=parallelogram;perimeter=parallelogramPerimeter;whiteSpace=wrap;html=1;fixedSize=1;" vertex="1" parent="1">
          <mxGeometry x="340" y="470" width="120" height="60" as="geometry" />
        </mxCell>
        <mxCell id="IoencH_V4oTwIDFPPcMS-7" value="" style="endArrow=classic;html=1;rounded=0;exitX=0.5;exitY=1;exitDx=0;exitDy=0;entryX=0.5;entryY=0;entryDx=0;entryDy=0;" edge="1" parent="1" source="IoencH_V4oTwIDFPPcMS-5" target="IoencH_V4oTwIDFPPcMS-6">
          <mxGeometry width="50" height="50" relative="1" as="geometry">
            <mxPoint x="400" y="530" as="sourcePoint" />
            <mxPoint x="450" y="480" as="targetPoint" />
          </mxGeometry>
        </mxCell>
        <mxCell id="IoencH_V4oTwIDFPPcMS-12" value="" style="edgeStyle=orthogonalEdgeStyle;rounded=0;orthogonalLoop=1;jettySize=auto;html=1;" edge="1" parent="1" source="IoencH_V4oTwIDFPPcMS-8" target="IoencH_V4oTwIDFPPcMS-11">
          <mxGeometry relative="1" as="geometry" />
        </mxCell>
        <mxCell id="IoencH_V4oTwIDFPPcMS-14" value="" style="edgeStyle=orthogonalEdgeStyle;rounded=0;orthogonalLoop=1;jettySize=auto;html=1;" edge="1" parent="1" source="IoencH_V4oTwIDFPPcMS-8" target="IoencH_V4oTwIDFPPcMS-13">
          <mxGeometry relative="1" as="geometry" />
        </mxCell>
        <mxCell id="IoencH_V4oTwIDFPPcMS-8" value="if pilihan =4" style="rhombus;whiteSpace=wrap;html=1;" vertex="1" parent="1">
          <mxGeometry x="360" y="560" width="80" height="80" as="geometry" />
        </mxCell>
        <mxCell id="IoencH_V4oTwIDFPPcMS-11" value="selesai" style="ellipse;whiteSpace=wrap;html=1;" vertex="1" parent="1">
          <mxGeometry x="560" y="730" width="120" height="80" as="geometry" />
        </mxCell>
        <mxCell id="IoencH_V4oTwIDFPPcMS-16" value="" style="edgeStyle=orthogonalEdgeStyle;rounded=0;orthogonalLoop=1;jettySize=auto;html=1;" edge="1" parent="1" source="IoencH_V4oTwIDFPPcMS-13" target="IoencH_V4oTwIDFPPcMS-15">
          <mxGeometry relative="1" as="geometry" />
        </mxCell>
        <mxCell id="IoencH_V4oTwIDFPPcMS-26" value="" style="edgeStyle=orthogonalEdgeStyle;rounded=0;orthogonalLoop=1;jettySize=auto;html=1;" edge="1" parent="1" source="IoencH_V4oTwIDFPPcMS-13" target="IoencH_V4oTwIDFPPcMS-25">
          <mxGeometry relative="1" as="geometry" />
        </mxCell>
        <mxCell id="IoencH_V4oTwIDFPPcMS-13" value="if pilihan 1" style="rhombus;whiteSpace=wrap;html=1;" vertex="1" parent="1">
          <mxGeometry x="190" y="680" width="80" height="80" as="geometry" />
        </mxCell>
        <mxCell id="IoencH_V4oTwIDFPPcMS-18" value="" style="edgeStyle=orthogonalEdgeStyle;rounded=0;orthogonalLoop=1;jettySize=auto;html=1;" edge="1" parent="1" source="IoencH_V4oTwIDFPPcMS-15" target="IoencH_V4oTwIDFPPcMS-17">
          <mxGeometry relative="1" as="geometry" />
        </mxCell>
        <mxCell id="IoencH_V4oTwIDFPPcMS-15" value="output &quot;masukan panjang sisi&quot;" style="shape=parallelogram;perimeter=parallelogramPerimeter;whiteSpace=wrap;html=1;fixedSize=1;" vertex="1" parent="1">
          <mxGeometry x="380" y="800" width="120" height="60" as="geometry" />
        </mxCell>
        <mxCell id="IoencH_V4oTwIDFPPcMS-22" value="" style="edgeStyle=orthogonalEdgeStyle;rounded=0;orthogonalLoop=1;jettySize=auto;html=1;" edge="1" parent="1" source="IoencH_V4oTwIDFPPcMS-17" target="IoencH_V4oTwIDFPPcMS-21">
          <mxGeometry relative="1" as="geometry" />
        </mxCell>
        <mxCell id="IoencH_V4oTwIDFPPcMS-17" value="input sisi" style="shape=parallelogram;perimeter=parallelogramPerimeter;whiteSpace=wrap;html=1;fixedSize=1;" vertex="1" parent="1">
          <mxGeometry x="380" y="940" width="120" height="60" as="geometry" />
        </mxCell>
        <mxCell id="IoencH_V4oTwIDFPPcMS-24" value="" style="edgeStyle=orthogonalEdgeStyle;rounded=0;orthogonalLoop=1;jettySize=auto;html=1;" edge="1" parent="1" source="IoencH_V4oTwIDFPPcMS-21" target="IoencH_V4oTwIDFPPcMS-23">
          <mxGeometry relative="1" as="geometry" />
        </mxCell>
        <mxCell id="IoencH_V4oTwIDFPPcMS-21" value="luas sisi sisi" style="rounded=1;whiteSpace=wrap;html=1;" vertex="1" parent="1">
          <mxGeometry x="380" y="1080" width="120" height="60" as="geometry" />
        </mxCell>
        <mxCell id="IoencH_V4oTwIDFPPcMS-23" value="output" style="shape=parallelogram;perimeter=parallelogramPerimeter;whiteSpace=wrap;html=1;fixedSize=1;rounded=1;" vertex="1" parent="1">
          <mxGeometry x="380" y="1220" width="120" height="60" as="geometry" />
        </mxCell>
        <mxCell id="IoencH_V4oTwIDFPPcMS-28" value="" style="edgeStyle=orthogonalEdgeStyle;rounded=0;orthogonalLoop=1;jettySize=auto;html=1;" edge="1" parent="1" source="IoencH_V4oTwIDFPPcMS-25" target="IoencH_V4oTwIDFPPcMS-27">
          <mxGeometry relative="1" as="geometry" />
        </mxCell>
        <mxCell id="IoencH_V4oTwIDFPPcMS-25" value="if pilihan =1" style="rhombus;whiteSpace=wrap;html=1;" vertex="1" parent="1">
          <mxGeometry x="70" y="800" width="80" height="80" as="geometry" />
        </mxCell>
        <mxCell id="IoencH_V4oTwIDFPPcMS-30" value="" style="edgeStyle=orthogonalEdgeStyle;rounded=0;orthogonalLoop=1;jettySize=auto;html=1;" edge="1" parent="1" source="IoencH_V4oTwIDFPPcMS-27" target="IoencH_V4oTwIDFPPcMS-29">
          <mxGeometry relative="1" as="geometry" />
        </mxCell>
        <mxCell id="IoencH_V4oTwIDFPPcMS-27" value="output &quot;masuknapanjangatas&quot;" style="shape=parallelogram;perimeter=parallelogramPerimeter;whiteSpace=wrap;html=1;fixedSize=1;" vertex="1" parent="1">
          <mxGeometry x="160" y="920" width="170" height="90" as="geometry" />
        </mxCell>
        <mxCell id="IoencH_V4oTwIDFPPcMS-29" value="input atas&lt;div&gt;&lt;br&gt;&lt;/div&gt;" style="shape=parallelogram;perimeter=parallelogramPerimeter;whiteSpace=wrap;html=1;fixedSize=1;" vertex="1" parent="1">
          <mxGeometry x="185" y="1105" width="120" height="60" as="geometry" />
        </mxCell>
      </root>
    </mxGraphModel>
  </diagram>
</mxfile>
